<?xml version="1.0" standalone="no"?><!DOCTYPE svg PUBLIC "-//W3C//DTD SVG 1.1//EN" "http://www.w3.org/Graphics/SVG/1.1/DTD/svg11.dtd"><svg t="1683700996135" class="icon" viewBox="0 0 1489 1024" version="1.1" xmlns="http://www.w3.org/2000/svg" p-id="7113" xmlns:xlink="http://www.w3.org/1999/xlink" width="290.8203125" height="200"><path d="M1396.363636 0c51.293091 0 93.090909 41.704727 93.090909 93.090909v837.818182c0 51.386182-41.797818 93.090909-93.090909 93.090909H93.090909c-51.293091 0-93.090909-41.704727-93.090909-93.090909V93.090909c0-51.386182 41.797818-93.090909 93.090909-93.090909h1303.272727zM791.272727 279.272727c25.693091 0 46.545455 20.852364 46.545455 46.545455s-20.852364 46.545455-46.545455 46.545454h-46.545454v325.818182c0 25.693091-20.852364 46.545455-46.545455 46.545455s-46.545455-20.852364-46.545454-46.545455V372.363636h-46.545455c-25.693091 0-46.545455-20.852364-46.545454-46.545454s20.852364-46.545455 46.545454-46.545455h186.181818z m385.861818 1.954909A46.533818 46.533818 0 0 1 1210.181818 325.818182v372.363636c0 25.693091-20.852364 46.545455-46.545454 46.545455s-46.545455-20.852364-46.545455-46.545455V479.511273l-7.819636 11.729454c-17.314909 25.786182-60.136727 25.786182-77.451637 0L1024 479.511273V698.181818c0 25.693091-20.852364 46.545455-46.545455 46.545455s-46.545455-20.852364-46.545454-46.545455V325.818182a46.417455 46.417455 0 0 1 33.047273-44.497455 46.429091 46.429091 0 0 1 52.224 18.711273L1070.545455 381.579636l54.36509-81.640727a46.778182 46.778182 0 0 1 52.224-18.711273zM557.242182 686.917818A46.545455 46.545455 0 0 1 512 744.727273a46.464 46.464 0 0 1-45.149091-35.281455L452.421818 651.636364h-67.025454l-14.429091 57.809454c-6.237091 24.855273-31.557818 39.749818-56.413091 33.885091a46.510545 46.510545 0 0 1-33.885091-56.413091l93.090909-372.363636c10.426182-41.425455 79.965091-41.425455 90.298182 0l93.184 372.363636zM408.669091 558.545455h20.48L418.909091 517.771636 408.669091 558.545455zM1396.363636 977.454545l0.093091-46.545454H1396.363636V93.090909H93.090909v837.818182h1303.272727v46.545454z" fill="#2c2c2c" p-id="7114"></path></svg>