<?xml version="1.0" standalone="no"?><!DOCTYPE svg PUBLIC "-//W3C//DTD SVG 1.1//EN" "http://www.w3.org/Graphics/SVG/1.1/DTD/svg11.dtd"><svg t="1693558317339" class="icon" viewBox="0 0 1024 1024" version="1.1" xmlns="http://www.w3.org/2000/svg" p-id="4557" data-spm-anchor-id="a313x.search_index.0.i12.3a693a810iL6aT" xmlns:xlink="http://www.w3.org/1999/xlink" width="200" height="200"><path d="M310.016 940.032a201.984 56.064 0 1 0 403.968 0 201.984 56.064 0 1 0-403.968 0Z" fill="" p-id="4558" data-spm-anchor-id="a313x.search_index.0.i13.3a693a810iL6aT" class="selected"></path><path d="M512 27.776a358.4 358.4 0 0 0-358.4 359.296 353.408 353.408 0 0 0 64 207.232c33.792 49.664 104.96 117.248 151.424 169.856C419.968 820.992 512 939.264 512 939.264s122.752-150.528 137.6-167.424 109.44-115.2 150.912-169.856A360.192 360.192 0 0 0 512 27.776z" fill="#00AFF0" p-id="4559" data-spm-anchor-id="a313x.search_index.0.i9.3a693a810iL6aT" class="selected"></path><path d="M513.152 644.096A255.232 255.232 0 1 1 768 388.992a255.232 255.232 0 0 1-254.848 255.104zM680.576 307.2a25.6 25.6 0 0 1-30.72-16.384 23.424 23.424 0 0 1 18.432-30.592h2.048a199.424 199.424 0 0 0-130.688-71.424v46.976h-51.2V186.88a203.776 203.776 0 0 0-128 67.328l18.304 18.432a24.576 24.576 0 0 1-35.072 34.56l-10.24-12.8a215.808 215.808 0 0 0-24.448 93.952A203.264 203.264 0 0 0 486.4 591.104v-24.576a25.6 25.6 0 0 1 26.496-24.448A24.704 24.704 0 0 1 537.6 566.528v24.576a203.264 203.264 0 0 0 177.664-202.112 212.48 212.48 0 0 0-20.48-87.808zM537.6 264.448v-26.496a151.68 151.68 0 0 1 124.544 124.544h-26.496A121.728 121.728 0 0 0 537.6 264.448z m51.2 124.544a75.264 75.264 0 0 1-75.52 75.52 76.8 76.8 0 1 1 0-153.6 75.776 75.776 0 0 1 75.52 78.08z m-75.52-51.2a51.2 51.2 0 1 0 51.2 51.2 51.2 51.2 0 0 0-51.2-51.2z m-124.544 26.624h-26.624A151.424 151.424 0 0 1 486.4 240v24.448a126.848 126.848 0 0 0-98.048 100.096z m99.968 148.992V537.6a151.552 151.552 0 0 1-124.416-124.544h26.496a121.6 121.6 0 0 0 97.92 100.096z m149.12-98.048h26.496a151.68 151.68 0 0 1-124.544 124.544v-24.32a132.48 132.48 0 0 0 98.048-100.096z m0 0" fill="#FFFFFF" p-id="4560"></path></svg>