<?xml version="1.0" standalone="no"?><!DOCTYPE svg PUBLIC "-//W3C//DTD SVG 1.1//EN" "http://www.w3.org/Graphics/SVG/1.1/DTD/svg11.dtd"><svg t="1607756786186" class="icon" viewBox="0 0 1024 1024" version="1.1" xmlns="http://www.w3.org/2000/svg" p-id="2158" xmlns:xlink="http://www.w3.org/1999/xlink" width="64" height="64"><defs><style type="text/css"></style></defs><path d="M187.164444 585.386667c-17.635556-2.275556-31.857778-2.844444-45.511111-5.688889-44.942222-9.671111-68.835556-52.337778-50.062222-94.435556 9.671111-21.617778 25.6-40.96 42.097778-58.595555 95.004444-100.124444 191.146667-199.68 287.857778-298.666667 55.751111-57.457778 126.862222-57.457778 182.044444 0 98.417778 101.831111 196.835556 204.231111 294.684445 306.631111 12.515556 13.084444 24.462222 27.875556 32.426666 44.373333 23.324444 50.631111-6.826667 99.555556-62.577778 102.4-9.102222 0.568889-18.773333 0-31.288888 0v30.72c0 68.266667 0.568889 136.533333 0 204.8-0.568889 67.128889-50.062222 118.328889-116.622223 121.173334-31.288889 1.137778-63.146667 0-94.435555 1.137778-22.755556 0.568889-30.72-9.102222-30.72-31.288889 0.568889-74.524444 0.568889-149.048889 0-223.004445 0-43.235556-8.533333-51.2-52.337778-51.2H471.608889c-30.72 0.568889-40.96 10.24-40.96 40.96-0.568889 74.524444 0 149.048889 0 223.004445 0 38.684444-2.844444 41.528889-41.528889 41.528889H315.733333c-75.662222-0.568889-126.862222-50.062222-128-126.293334-1.137778-65.422222 0-131.413333 0-196.835555-0.568889-10.24-0.568889-19.342222-0.568889-30.72z" p-id="2159" fill="#bfbfbf"></path></svg>