<?xml version="1.0" standalone="no"?><!DOCTYPE svg PUBLIC "-//W3C//DTD SVG 1.1//EN" "http://www.w3.org/Graphics/SVG/1.1/DTD/svg11.dtd"><svg t="1683700885566" class="icon" viewBox="0 0 1024 1024" version="1.1" xmlns="http://www.w3.org/2000/svg" p-id="3511" xmlns:xlink="http://www.w3.org/1999/xlink" width="200" height="200"><path d="M508.819876 0C228.968944 0 0 228.968944 0 508.819876s228.968944 508.819876 508.819876 508.819876 508.819876-228.968944 508.819876-508.819876-228.968944-508.819876-508.819876-508.819876m0 982.658385C248.049689 982.658385 34.981366 769.590062 34.981366 508.819876 34.981366 251.229814 248.049689 38.161491 508.819876 38.161491s473.838509 213.068323 473.838509 473.838509c0 257.590062-213.068323 470.658385-473.838509 470.658385m0 0" fill="#2c2c2c" p-id="3512"></path><path d="M705.987578 737.78882v38.161491c0 9.540373-9.540373 19.080745-19.080746 19.080745h-60.42236c-9.540373 0-19.080745-9.540373-19.080745-19.080745V737.78882h-197.167702v38.161491c0 9.540373-9.540373 19.080745-19.080745 19.080745h-60.422361c-9.540373 0-19.080745-9.540373-19.080745-19.080745V737.78882c-22.26087 0-38.161491-19.080745-38.161491-38.161491V302.111801c0-22.26087 38.161491-38.161491 60.42236-38.16149 0 0 79.503106-38.161491 178.086957-38.161491 98.583851 0 197.167702 38.161491 197.167702 38.161491 22.26087 0 38.161491 19.080745 38.161491 38.16149v397.515528c-3.180124 19.080745-19.080745 38.161491-41.341615 38.161491m-346.633541-60.42236c28.621118 0 50.881988-22.26087 50.881988-47.701864 0-28.621118-22.26087-47.701863-50.881988-47.701863s-50.881988 22.26087-50.881987 47.701863c3.180124 28.621118 25.440994 47.701863 50.881987 47.701864m228.968944-413.416149h-159.006211c-9.540373 0-19.080745 9.540373-19.080745 19.080745s9.540373 19.080745 19.080745 19.080745h159.006211c9.540373 0 19.080745-9.540373 19.080746-19.080745s-9.540373-19.080745-19.080746-19.080745m117.664597 108.124223c0-9.540373-9.540373-19.080745-19.080746-19.080745H330.732919c-9.540373 0-19.080745 9.540373-19.080745 19.080745v117.664596c0 9.540373 9.540373 19.080745 19.080745 19.080746h356.173913c9.540373 0 19.080745-9.540373 19.080746-19.080746v-117.664596m-47.701864 209.888199c-28.621118 0-50.881988 22.26087-50.881987 47.701863 0 28.621118 22.26087 47.701863 50.881987 47.701864 28.621118 0 50.881988-22.26087 50.881988-47.701864-3.180124-25.440994-25.440994-47.701863-50.881988-47.701863m0 0" fill="#2c2c2c" p-id="3513"></path></svg>