<?xml version="1.0" standalone="no"?><!DOCTYPE svg PUBLIC "-//W3C//DTD SVG 1.1//EN" "http://www.w3.org/Graphics/SVG/1.1/DTD/svg11.dtd"><svg t="1683881476049" class="icon" viewBox="0 0 1365 1024" version="1.1" xmlns="http://www.w3.org/2000/svg" p-id="3408" xmlns:xlink="http://www.w3.org/1999/xlink" width="266.6015625" height="200"><path d="M0 0m60.927901 0l1096.702218 0q60.927901 0 60.927901 60.927901l0 0q0 60.927901-60.927901 60.927901l-1096.702218 0q-60.927901 0-60.927901-60.927901l0 0q0-60.927901 60.927901-60.927901Z" fill="#515151" p-id="3409"></path><path d="M0 396.031356m60.927901 0l1096.702218 0q60.927901 0 60.927901 60.927901l0 0q0 60.927901-60.927901 60.927901l-1096.702218 0q-60.927901 0-60.927901-60.927901l0 0q0-60.927901 60.927901-60.927901Z" fill="#515151" p-id="3410"></path><path d="M0 792.062713m60.927901 0l1096.702218 0q60.927901 0 60.927901 60.927901l0 0q0 60.927901-60.927901 60.927901l-1096.702218 0q-60.927901 0-60.927901-60.927901l0 0q0-60.927901 60.927901-60.927901Z" fill="#515151" p-id="3411"></path></svg>