<?xml version="1.0" standalone="no"?><!DOCTYPE svg PUBLIC "-//W3C//DTD SVG 1.1//EN" "http://www.w3.org/Graphics/SVG/1.1/DTD/svg11.dtd"><svg t="1683700854573" class="icon" viewBox="0 0 1024 1024" version="1.1" xmlns="http://www.w3.org/2000/svg" p-id="3198" xmlns:xlink="http://www.w3.org/1999/xlink" width="200" height="200"><path d="M871.58 718.89V406.08h43.24c20.18 0 37.88-13.55 43.14-33.03 5.26-19.48-3.19-40.08-20.64-50.25L539.79 91.07c-13.77-8.03-30.79-8.09-44.64-0.21L88.86 322.58c-17.61 10.04-26.25 30.68-21.05 50.27 5.19 19.59 22.93 33.23 43.2 33.23h45.84v312.79h-3.19c-49.18 0-89.17 39.99-89.17 89.17v41.78c0 49.18 39.99 89.17 89.17 89.17h716.68c49.18 0 89.17-39.99 89.17-89.17v-41.78c0-48.76-39.32-88.48-87.93-89.15z m-89.37-0.02h-66.98V406.08h66.98v312.79zM469.53 406.08v312.79h-66.96V406.08h66.96z m89.37 0h66.96v312.79H558.9V406.08z m-41.85-224.82l232.37 135.45H279.56l237.49-135.45zM246.22 406.08h66.98v312.79h-66.98V406.08z m-92.36 443.79l-0.2-41.63 716.48-0.2 0.2 41.59-716.48 0.24z" fill="#333333" p-id="3199"></path></svg>