<?xml version="1.0" standalone="no"?><!DOCTYPE svg PUBLIC "-//W3C//DTD SVG 1.1//EN" "http://www.w3.org/Graphics/SVG/1.1/DTD/svg11.dtd"><svg t="1604110859826" class="icon" viewBox="0 0 1024 1024" version="1.1" xmlns="http://www.w3.org/2000/svg" p-id="3341" xmlns:xlink="http://www.w3.org/1999/xlink" width="200" height="200"><defs><style type="text/css"></style></defs><path d="M512 207.232c192.298667 0 348.16 154.666667 348.16 345.386667 0 19.029333-1.536 37.674667-4.522667 55.893333a177.408 177.408 0 0 0-18.773333-0.981333c-17.749333 0-34.645333 2.474667-50.133333 7.253333 0.426667-1.493333 0.810667-3.114667 1.152-4.736 4.010667-18.986667 10.837333-37.205333 10.837333-57.429333 0-157.098667-128.384-284.416-286.72-284.416S225.28 395.52 225.28 552.618667c0 157.098667 128.384 284.458667 286.72 284.458666 72.917333 0 139.221333-39.936 188.586667-85.034666 2.901333 6.058667 7.253333 11.648 11.904 17.066666l8.661333 9.984c4.266667 5.034667 8.277333 10.069333 11.136 15.488 3.157333 5.888 6.4 11.690667 9.728 17.28A348.16 348.16 0 0 1 512 898.048c-192.298667 0-348.16-154.666667-348.16-345.429333 0-190.72 155.861333-345.386667 348.16-345.386667z" fill="#333333" p-id="3342"></path><path d="M450.56 85.333333a163.498667 163.498667 0 0 1 161.706667 136.448 348.970667 348.970667 0 0 0-67.157334-13.013333A102.4 102.4 0 0 0 450.56 146.346667a101.973333 101.973333 0 0 0-102.4 101.546666c-20.266667 10.666667-39.338667 23.338667-56.96 37.717334a159.146667 159.146667 0 0 1-4.48-37.674667C286.72 158.122667 360.106667 85.333333 450.56 85.333333z m-286.72 365.696c5.12 0 10.154667 0.256 15.146667 0.682667a337.152 337.152 0 0 0-12.8 60.373333 101.973333 101.973333 0 0 0-104.789334 101.546667 101.973333 101.973333 0 0 0 102.442667 101.546667c13.141333 0 25.728-2.474667 37.290667-6.954667 9.344 18.432 20.352 35.968 32.853333 52.352a164.693333 164.693333 0 0 1-70.144 15.530667C73.386667 776.106667 0 703.36 0 613.589333s73.386667-162.56 163.84-162.56z" fill="#333333" p-id="3343"></path><path d="M860.16 593.28c90.453333 0 163.84 72.746667 163.84 162.56 0 89.728-73.386667 162.517333-163.84 162.517333-84.522667 0-154.112-63.530667-162.901333-145.066666a30.592 30.592 0 0 1 29.781333-37.802667c16.981333 0 30.72 13.653333 30.72 30.464l-0.256-3.584h0.256l0.213333 0.128a102.101333 102.101333 0 0 0 102.186667 94.890667 101.973333 101.973333 0 0 0 102.4-101.546667 101.973333 101.973333 0 0 0-102.4-101.632c-12.970667 0-25.344 2.389333-36.778667 6.741333a31.701333 31.701333 0 0 1-12.16 2.474667 30.464 30.464 0 1 1-14.08-57.6v-0.085333l1.322667-0.554667a30.634667 30.634667 0 0 1 4.053333-1.493333l-5.418666 2.048a164.48 164.48 0 0 1 63.061333-12.458667z" fill="#FE6058" p-id="3344"></path></svg>