<?xml version="1.0" standalone="no"?><!DOCTYPE svg PUBLIC "-//W3C//DTD SVG 1.1//EN" "http://www.w3.org/Graphics/SVG/1.1/DTD/svg11.dtd"><svg t="1693561084344" class="icon" viewBox="0 0 1024 1024" version="1.1" xmlns="http://www.w3.org/2000/svg" p-id="12568" xmlns:xlink="http://www.w3.org/1999/xlink" width="200" height="200"><path d="M512.030402 0a31.9981 31.9981 0 0 1 31.48613 26.238442L544.028502 31.9981v97.274224a384.041198 384.041198 0 0 1 350.699177 350.699178h97.274224a31.9981 31.9981 0 0 1 5.759659 63.48423l-5.759659 0.51197h-97.274224a384.041198 384.041198 0 0 1-350.699177 350.699177v97.274224a31.9981 31.9981 0 0 1-63.484231 5.759659L480.032302 991.941103v-97.274224A384.041198 384.041198 0 0 1 129.333124 543.967702H32.0589a31.9981 31.9981 0 0 1-5.759658-63.484231L32.0589 479.971502h97.274224A384.041198 384.041198 0 0 1 480.032302 129.272324V31.9981A31.9981 31.9981 0 0 1 512.030402 0z m0 191.988601a319.981001 319.981001 0 1 0 0 639.962002A319.981001 319.981001 0 0 0 512.030402 191.988601z m0 191.9886a127.9924 127.9924 0 1 1 0 255.984801 127.9924 127.9924 0 0 1 0-255.984801z" p-id="12569" fill="#00AFF0"></path></svg>