<?xml version="1.0" standalone="no"?><!DOCTYPE svg PUBLIC "-//W3C//DTD SVG 1.1//EN" "http://www.w3.org/Graphics/SVG/1.1/DTD/svg11.dtd"><svg t="1689128941816" class="icon" viewBox="0 0 1024 1024" version="1.1" xmlns="http://www.w3.org/2000/svg" p-id="6599" data-spm-anchor-id="a313x.7781069.0.i14" xmlns:xlink="http://www.w3.org/1999/xlink" width="200" height="200"><path d="M375.1 477.6H209c-50.9 0-92.3-41.4-92.3-92.3v-166c0-50.9 41.4-92.3 92.3-92.3h166.1c50.9 0 92.3 41.4 92.3 92.3v166.1c0 50.8-41.4 92.2-92.3 92.2zM209 190.7c-15.7 0-28.5 12.8-28.5 28.5v166.1c0 15.8 12.8 28.5 28.5 28.5h166.1c15.7 0 28.5-12.8 28.5-28.5v-166c0-15.7-12.8-28.5-28.5-28.5H209zM815 477.6H648.9c-50.9 0-92.3-41.4-92.3-92.3v-166c0-50.9 41.4-92.3 92.3-92.3H815c50.9 0 92.3 41.4 92.3 92.3v166.1c0 50.8-41.4 92.2-92.3 92.2zM648.9 190.7c-15.7 0-28.5 12.8-28.5 28.5v166.1c0 15.8 12.8 28.5 28.5 28.5H815c15.7 0 28.5-12.8 28.5-28.5v-166c0-15.7-12.8-28.5-28.5-28.5H648.9zM375.1 897.1H209c-50.9 0-92.3-41.4-92.3-92.3V638.7c0-50.9 41.4-92.3 92.3-92.3h166.1c50.9 0 92.3 41.4 92.3 92.3v166.1c0 50.8-41.4 92.3-92.3 92.3zM209 610.1c-15.7 0-28.5 12.8-28.5 28.5v166.1c0 15.8 12.8 28.5 28.5 28.5h166.1c15.7 0 28.5-12.8 28.5-28.5v-166c0-15.8-12.8-28.5-28.5-28.5H209z" p-id="6600" data-spm-anchor-id="a313x.7781069.0.i15" class="" fill="#1BA1E2"></path><path d="M815 546.4H648.9c-50.9 0-92.3 41.4-92.3 92.3v166.1c0 50.9 41.4 92.3 92.3 92.3H815c50.9 0 92.3-41.4 92.3-92.3V638.7c0-50.9-41.4-92.3-92.3-92.3z" fill="#70b5d6" p-id="6601" data-spm-anchor-id="a313x.7781069.0.i20" class=""></path></svg>