<?xml version="1.0" standalone="no"?><!DOCTYPE svg PUBLIC "-//W3C//DTD SVG 1.1//EN" "http://www.w3.org/Graphics/SVG/1.1/DTD/svg11.dtd"><svg t="1688469796341" class="icon" viewBox="0 0 1024 1024" version="1.1" xmlns="http://www.w3.org/2000/svg" p-id="10019" xmlns:xlink="http://www.w3.org/1999/xlink" width="200" height="200"><path d="M306.820741 191.525926c-51.579259 11.188148-103.632593 63.241481-114.820741 114.820741-21.428148 99.176296 53.475556 186.785185 148.954074 186.785185l152.651852 0 0-6.447407 0-31.478519L493.605926 333.937778l-0.18963 0C489.623704 241.682963 403.816296 170.571852 306.820741 191.525926zM455.68 455.205926l-114.725926 0c-63.905185 0-115.579259-52.242963-114.725926-116.337778 0.853333-61.819259 51.294815-112.260741 113.114074-113.114074 64.094815-0.853333 116.337778 50.820741 116.337778 114.725926L455.68 455.205926z" fill="#00AFF0" p-id="10020"></path><path d="M832.663704 306.346667c-11.188148-51.579259-63.241481-103.632593-114.820741-114.820741-96.900741-20.954074-182.802963 50.157037-186.595556 142.506667l-0.18963 0 0 121.173333 0 31.478519 0 6.447407 152.651852 0C779.093333 493.131852 854.091852 405.522963 832.663704 306.346667zM568.983704 340.48c0-63.905185 52.242963-115.579259 116.337778-114.725926 61.819259 0.853333 112.260741 51.294815 113.114074 113.114074 0.853333 64.094815-50.820741 116.337778-114.725926 116.337778l-114.725926 0L568.983704 340.48z" fill="#00AFF0" p-id="10021"></path><path d="M192 717.842963c11.188148 51.579259 63.241481 103.632593 114.820741 114.820741 96.900741 20.954074 182.802963-50.157037 186.595556-142.506667l0.18963 0L493.605926 568.983704l0-31.478519 0-6.447407-152.651852 0C245.475556 531.057778 170.571852 618.666667 192 717.842963zM455.68 683.70963c0 63.905185-52.242963 115.579259-116.337778 114.725926-61.819259-0.853333-112.260741-51.294815-113.114074-113.114074-0.853333-64.094815 50.820741-116.337778 114.725926-116.337778l114.725926 0L455.68 683.70963z" fill="#00AFF0" p-id="10022"></path><path d="M683.70963 531.057778l-152.651852 0 0 6.447407 0 31.478519 0 121.173333 0.18963 0c3.887407 92.34963 89.694815 163.460741 186.595556 142.506667 51.579259-11.188148 103.632593-63.241481 114.820741-114.820741C854.091852 618.666667 779.093333 531.057778 683.70963 531.057778zM798.435556 685.321481C797.582222 747.140741 747.140741 797.582222 685.321481 798.435556c-64.094815 0.853333-116.337778-50.820741-116.337778-114.725926l0-114.725926 114.725926 0C747.614815 568.983704 799.288889 621.226667 798.435556 685.321481z" fill="#00AFF0" p-id="10023"></path></svg>