<?xml version="1.0" standalone="no"?><!DOCTYPE svg PUBLIC "-//W3C//DTD SVG 1.1//EN" "http://www.w3.org/Graphics/SVG/1.1/DTD/svg11.dtd"><svg t="1693561397645" class="icon" viewBox="0 0 1024 1024" version="1.1" xmlns="http://www.w3.org/2000/svg" p-id="14660" xmlns:xlink="http://www.w3.org/1999/xlink" width="200" height="200"><path d="M906.8 746.1h-59.2l-0.1 2.9v-2.9h-69.9 69.9V289h59.2c11 0 20-9 20-20V124c0-11-9-20-20-20h-145c-11 0-20 9-20 20v60.8H282.2V124c0-11-9-20-20-20h-145c-11 0-20 9-20 20v145c0 11 9 20 20 20h59v457.1h-58.9c-11 0-20 9-20 20v145c0 11 9 20 20 20h145c11 0 20-9 20-20v-54.9h459.6V911c0 11 9 20 20 20h145c11 0 20-9 20-20V766c-0.1-10.9-9.1-19.9-20.1-19.9z m-95-572.1h45v44.9h-45V174z m-70 10.9z m0.1 67.8v0.2-0.2zM246.2 289h16c11 0 20-9 20-20v-14.2h132.3L246.2 423.1V289z m0 233.1l267.3-267.3h106.9L246.2 629V522.1z m-34 326.3v12.7h-45v-45h14.7v-0.1h30.3v32.4zM184.6 219h0.2-0.2z m27.6-26.6v26.5h-45V174h45v18.4z m565.3 553.7h-15.7c-11 0-20 9-20 20v20.1H599.7l177.8-177.9v137.8z m0-236.8L500.7 786.2H393.8l383.7-383.7v106.8z m0-205.8L294.9 786.2h-12.7v-20.1c0-11-9-20-20-20h-16V728l473.2-473.2h22.4V269c0 11 9 20 20 20h15.7v14.5z m79.4 557.6h-45v-12.7c-1.7 0.9-3.4 1.7-5.1 2.4 1.7-0.7 3.4-1.5 5-2.4v-32.3h45.1v45z" fill="#00AFF0" p-id="14661"></path></svg>