<?xml version="1.0" standalone="no"?><!DOCTYPE svg PUBLIC "-//W3C//DTD SVG 1.1//EN" "http://www.w3.org/Graphics/SVG/1.1/DTD/svg11.dtd"><svg t="1693561353328" class="icon" viewBox="0 0 1024 1024" version="1.1" xmlns="http://www.w3.org/2000/svg" p-id="13601" xmlns:xlink="http://www.w3.org/1999/xlink" width="200" height="200"><path d="M1024 290.133333L733.866667 0 460.8 267.377778 0 733.866667 290.133333 1024 1024 290.133333zM290.133333 927.288889l-193.422222-193.422222 22.755556-22.755556 136.533333 136.533333c11.377778 11.377778 34.133333 11.377778 51.2 0 11.377778-11.377778 11.377778-34.133333 0-51.2L170.666667 659.911111l22.755555-22.755555 73.955556 73.955555c11.377778 11.377778 34.133333 11.377778 51.2 0 11.377778-11.377778 11.377778-34.133333 0-51.2l-73.955556-73.955555 22.755556-22.755556 136.533333 136.533333c11.377778 11.377778 34.133333 11.377778 51.2 0s11.377778-34.133333 0-51.2L318.577778 512l22.755555-22.755556 73.955556 73.955556c11.377778 11.377778 34.133333 11.377778 51.2 0 11.377778-11.377778 11.377778-34.133333 0-51.2L392.533333 438.044444l22.755556-22.755555 136.533333 136.533333c11.377778 11.377778 34.133333 11.377778 51.2 0 11.377778-11.377778 11.377778-34.133333 0-51.2L460.8 364.088889l28.444444-22.755556 73.955556 73.955556c11.377778 11.377778 34.133333 11.377778 51.2 0 11.377778-17.066667 11.377778-34.133333-5.688889-51.2L534.755556 290.133333l22.755555-22.755555 136.533333 136.533333c11.377778 11.377778 34.133333 11.377778 51.2 0 11.377778-11.377778 11.377778-34.133333 0-51.2l-136.533333-136.533333 119.466667-119.466667 193.422222 193.422222L290.133333 927.288889z" fill="#00AFF0" p-id="13602"></path></svg>