<?xml version="1.0" standalone="no"?><!DOCTYPE svg PUBLIC "-//W3C//DTD SVG 1.1//EN" "http://www.w3.org/Graphics/SVG/1.1/DTD/svg11.dtd"><svg t="1693558932867" class="icon" viewBox="0 0 1024 1024" version="1.1" xmlns="http://www.w3.org/2000/svg" p-id="11482" xmlns:xlink="http://www.w3.org/1999/xlink" width="200" height="200"><path d="M81.990273 0a81.919618 81.919618 0 0 1 81.919618 79.462029L875.040439 280.574691a81.919618 81.919618 0 1 1 80.75909 127.931136v158.787526l5.427175 6.143971-5.461308 4.846911v160.186985a81.919618 81.919618 0 1 1-68.71008 141.482007L243.883918 959.824854a81.919618 81.919618 0 1 1-125.507681-85.844933L45.672576 155.374208A81.919618 81.919618 0 0 1 81.95614 0z m696.316751 312.728141L206.91769 872.443929c12.15141 7.509298 22.118297 18.056449 28.979065 30.617457l75.331915-9.318357 555.346742-534.081774a81.40762 81.40762 0 0 1-6.007439-23.55189l-82.260949-23.347091z m120.148773 95.845952l-492.20037 473.290592 148.820639-18.466048-0.819197-0.921595 344.198928-309.826821v-144.041995z m0 221.285368l-246.031919 221.4219 207.973429-25.80468a81.885485 81.885485 0 0 1 38.092623-75.60498v-120.01224zM622.250152 268.62808L159.91631 714.748665l11.332214 112.298142L714.682787 294.774091l-92.500901-26.146011z m-161.108581-45.567788l-319.486509 311.294548 10.922615 107.75843L558.35285 250.537497l-97.279546-27.511338zM284.22933 173.055192L120.970358 329.93126l13.311938 131.549253 263.098506-256.442537-113.117339-31.982784z m-180.393825-12.15141l9.762088 96.596883L220.297895 154.96461l-74.956451-21.162568c-10.547151 12.90234-24.985483 22.527895-41.471806 27.033474z" fill="#00AFF0" p-id="11483"></path></svg>