<?xml version="1.0" standalone="no"?><!DOCTYPE svg PUBLIC "-//W3C//DTD SVG 1.1//EN" "http://www.w3.org/Graphics/SVG/1.1/DTD/svg11.dtd"><svg t="1689245554238" class="icon" viewBox="0 0 1024 1024" version="1.1" xmlns="http://www.w3.org/2000/svg" p-id="2291" xmlns:xlink="http://www.w3.org/1999/xlink" width="200" height="200"><path d="M737.333 193.185l-336.105 340.35 97.334 95.957 338.285-337.54-99.514-98.767zM468.737 532.159l270.03-267.222 29.138 27.704-269.343 268.598-29.825-29.08zM803.12 128.488c-12.216 11.872-24.434 23.746-36.65 35.562 33.037 33.38 66.133 66.761 99.171 100.143 12.788-13.25 25.579-26.499 38.312-39.747 26.844-31.947 28.563-67.451-1.377-97.333-29.996-29.942-67.737-24.894-99.456 1.375z" fill="#00AFF0" p-id="2292"></path><path d="M507.738 31.327c28.563 0 56.666 2.523 84.027 7.341 27.759 4.818 54.889 12.16 81.158 21.681 14.74 5.334 22.368 21.623 16.978 36.306-5.336 14.74-21.566 22.312-36.249 16.978-22.829-8.259-46.803-14.683-71.639-19.042-24.033-4.188-48.867-6.367-74.275-6.367-117.923 0-224.721 47.777-301.98 125.036C128.5 290.576 80.666 397.315 80.666 515.239S128.5 739.96 205.758 817.217c77.259 77.318 184.057 125.096 301.98 125.096 117.925 0 224.72-47.777 301.979-125.096C886.974 739.96 934.81 633.163 934.81 515.239c0-23.917-1.893-46.973-5.507-69.229-3.785-23.056-9.349-45.54-16.634-67.105-4.932-14.855 3.041-30.916 17.895-35.904 14.799-4.933 30.859 3.097 35.849 17.896 8.26 24.547 14.568 49.899 18.87 75.996 4.187 25.81 6.367 52.022 6.367 78.348 0 133.64-54.144 254.603-141.727 342.187-87.584 87.583-208.547 141.727-342.186 141.727-133.64 0-254.603-54.144-342.186-141.727C77.969 769.842 23.825 648.879 23.825 515.239c0-133.639 54.144-254.604 141.727-342.185C253.135 85.471 374.098 31.327 507.738 31.327zM867.99 159.689c-9.636-9.405-24.031-8.717-32.922 2.926 10.383 10.668 20.82 21.279 31.258 32.005 10.497-9.407 12.678-24.147 1.664-34.931z" fill="#00AFF0" p-id="2293"></path><path d="M373.181 559.804c32.463 32.465 64.87 64.93 97.333 97.392-9.234 9.979-18.468 19.846-27.703 29.825-8.89 6.424-16.978 11.414-24.892 14.913-26.268 10.208-52.538 20.418-78.865 30.628-29.939 2.179-43.475-11.988-41.239-41.986 9.751-25.35 19.444-50.701 29.195-76.053 5.104-10.438 10.955-18.354 17.034-25.58 9.693-9.695 19.444-19.387 29.137-29.139z m-14.683 113.737l14.397-45.311 28.449 28.276-42.846 17.035z" fill="#00AFF0" p-id="2294"></path><path d="M358.498 673.541l14.397-45.311 28.448 28.277-42.845 17.034z" fill="#00AFF0" p-id="2295"></path></svg>