<?xml version="1.0" standalone="no"?><!DOCTYPE svg PUBLIC "-//W3C//DTD SVG 1.1//EN" "http://www.w3.org/Graphics/SVG/1.1/DTD/svg11.dtd"><svg t="1683700921608" class="icon" viewBox="0 0 1024 1024" version="1.1" xmlns="http://www.w3.org/2000/svg" p-id="3954" xmlns:xlink="http://www.w3.org/1999/xlink" width="200" height="200"><path d="M958.2 466.89l-53.21-266.67c-13.2-66.26-64.18-112.55-123.94-112.55h-538.5c-59.76 0-110.74 46.29-123.94 112.55L65.37 466.91c-6.24 31.36 2.04 63.79 22.14 86.76 11.61 13.28 26.41 22.32 42.46 26.4v253.39c0 55.4 56.28 98.8 128.12 98.8H765.5c71.85 0 128.12-43.4 128.12-98.8V580.14c16.04-4.07 30.82-13.16 42.44-26.43 20.13-22.97 28.41-55.42 22.14-86.82z m-804.86 17.56l53.21-266.67c4.69-23.43 19.82-40.42 36-40.42h538.51c16.18 0 31.31 16.99 36 40.42l53.19 266.65c0.7 3.42 0.15 6.28-0.53 8.12l-126.83-8.06c-13.12-0.83-26.04 0.61-38.76 4.27l-182.85 53.06c-5.85 1.66-11.72 1.69-17.52 0.02L319.08 488.7c-10.25-2.96-20.74-4.45-31.29-4.45-2.41 0-4.82 0.09-7.23 0.24l-126.68 8.06c-0.68-1.77-1.25-4.57-0.54-8.1zM765.5 842.56H258.09c-21.7 0-34.84-7.86-38.43-11.67V578.25l66.63-4.24c2.56-0.26 5.3 0.13 7.97 0.88l184.71 53.15c10.95 3.15 22.2 4.73 33.48 4.73 11.36 0 22.73-1.6 33.79-4.8l182.82-53.04c2.69-0.79 5.41-1.16 8.1-0.92l66.77 4.24v252.64c-3.59 3.81-16.72 11.67-38.43 11.67z" fill="#333333" p-id="3955"></path><path d="M434 386.98h33.72v33.72c0 24.77 20.08 44.85 44.85 44.85s44.85-20.08 44.85-44.85v-33.72h33.72c24.77 0 44.85-20.08 44.85-44.85s-20.08-44.85-44.85-44.85h-33.72v-33.72c0-24.77-20.08-44.85-44.85-44.85s-44.85 20.08-44.85 44.85v33.72H434c-24.77 0-44.85 20.08-44.85 44.85s20.08 44.85 44.85 44.85z" fill="#333333" p-id="3956"></path></svg>