<?xml version="1.0" standalone="no"?><!DOCTYPE svg PUBLIC "-//W3C//DTD SVG 1.1//EN" "http://www.w3.org/Graphics/SVG/1.1/DTD/svg11.dtd"><svg t="1604110820627" class="icon" viewBox="0 0 1024 1024" version="1.1" xmlns="http://www.w3.org/2000/svg" p-id="3209" xmlns:xlink="http://www.w3.org/1999/xlink" width="200" height="200"><defs><style type="text/css"></style></defs><path d="M716.8 76.8a112.64 112.64 0 0 1 112.4352 105.75872L829.44 189.44v286.59712a30.72 30.72 0 0 1-61.15328 4.17792l-0.28672-4.17792V189.44A51.2 51.2 0 0 0 722.04288 138.48576L716.8 138.24H184.32A51.2 51.2 0 0 0 133.36576 184.19712L133.12 189.44v614.4c0 26.50112 20.15232 48.3328 45.95712 50.95424L184.32 855.04h286.59712a30.72 30.72 0 0 1 4.17792 61.15328l-4.17792 0.28672H184.32a112.64 112.64 0 0 1-112.4352-105.75872L71.68 803.84V189.44A112.64 112.64 0 0 1 177.43872 77.0048L184.32 76.8h532.48z" fill="#333333" p-id="3210"></path><path d="M225.28 250.88m30.72 0l266.24 0q30.72 0 30.72 30.72l0 0q0 30.72-30.72 30.72l-266.24 0q-30.72 0-30.72-30.72l0 0q0-30.72 30.72-30.72Z" fill="#333333" p-id="3211"></path><path d="M225.28 377.15968m30.72 0l143.36 0q30.72 0 30.72 30.72l0 0q0 30.72-30.72 30.72l-143.36 0q-30.72 0-30.72-30.72l0 0q0-30.72 30.72-30.72Z" fill="#333333" p-id="3212"></path><path d="M477.184 565.12512a139.18208 139.18208 0 0 0 0 196.85376l121.0368 121.0368a112.64 112.64 0 0 0 159.3344 0l121.0368-121.0368a139.18208 139.18208 0 0 0 0-196.85376l-5.57056-5.24288a139.18208 139.18208 0 0 0-191.2832 5.24288l-3.8912 3.85024-3.80928-3.85024a139.18208 139.18208 0 0 0-196.85376 0z m43.45856 43.45856a77.74208 77.74208 0 0 1 109.93664 0l25.6 25.55904a30.72 30.72 0 0 0 43.4176 0l25.55904-25.55904a77.74208 77.74208 0 0 1 109.9776 109.9776l-121.0368 121.0368a51.2 51.2 0 0 1-72.41728 0l-121.0368-121.0368a77.74208 77.74208 0 0 1 0-109.9776z" fill="#FE6058" p-id="3213"></path></svg>